<svg width="16" height="18" viewBox="0 0 16 18" fill="none" xmlns="http://www.w3.org/2000/svg">
<g id="Group 26">
<path id="Vector" d="M11.9541 4.86133C11.9541 2.72877 10.2253 1 8.09277 1C5.96022 1 4.23145 2.72877 4.23145 4.86133V13.1386C4.23145 15.2712 5.96022 17 8.09277 17C10.2253 17 11.9541 15.2712 11.9541 13.1386V4.86133Z" stroke="#333333" stroke-width="1.5" stroke-linecap="round" stroke-linejoin="round"/>
<path id="Vector_2" d="M3.13333 6.89868H13.256C14.3226 6.89868 15.1866 7.76268 15.1866 8.82934V15.0693C15.1866 16.136 14.3226 17 13.256 17H2.93066C1.864 17 1 16.136 1 15.0693V9.03201C1 7.85868 1.96 6.89868 3.13333 6.89868Z" fill="white" stroke="#333333" stroke-width="1.5" stroke-linecap="round" stroke-linejoin="round"/>
<path id="Vector_3" d="M8.09375 11.9546V10.1306" stroke="#333333" stroke-width="1.5" stroke-linecap="round" stroke-linejoin="round"/>
</g>
</svg>
