<svg width="27" height="27" viewBox="0 0 27 27" fill="none" xmlns="http://www.w3.org/2000/svg">
<g id="Group">
<path id="Vector" d="M11.4667 16.7004H15.55C16.4667 16.7004 17.2167 17.4504 17.2167 18.3671V25.0338H9.80005V18.3671C9.80005 17.4504 10.55 16.7004 11.4667 16.7004Z" stroke="#4157A5" stroke-width="2" stroke-linecap="round" stroke-linejoin="round"/>
<path id="Vector_2" fill-rule="evenodd" clip-rule="evenodd" d="M11.4 1.75L2.53333 8.96667C1.56667 9.75 1 10.95 1 12.2V21.7167C1 23.55 2.5 25.05 4.33333 25.05H22.6667C24.5 25.05 26 23.55 26 21.7167V12.2C26 10.95 25.4333 9.76667 24.4667 8.96667L15.6 1.75C14.3667 0.75 12.6167 0.75 11.3833 1.75H11.4Z" stroke="#333333" stroke-width="2" stroke-linecap="round" stroke-linejoin="round"/>
</g>
</svg>
