<svg width="18" height="17" viewBox="0 0 18 17" fill="none" xmlns="http://www.w3.org/2000/svg">
<path fill-rule="evenodd" clip-rule="evenodd" d="M17 7.9573C17 9.04531 16.1147 9.93064 15.0267 9.93064H14.9307V5.99463H15.0267C16.1147 5.99463 17 6.8693 17 7.9573Z" stroke="#333333" stroke-width="1.5" stroke-linecap="round" stroke-linejoin="round"/>
<path fill-rule="evenodd" clip-rule="evenodd" d="M7.59211 14.827C7.70944 15.4136 7.25078 15.9576 6.65344 15.9576C6.19477 15.9576 5.81077 15.6376 5.71477 15.1896L4.80811 10.5923H6.74944L7.59211 14.827Z" stroke="#333333" stroke-width="1.5" stroke-linecap="round" stroke-linejoin="round"/>
<path fill-rule="evenodd" clip-rule="evenodd" d="M3.944 5.33398V10.5927H3.432C2.088 10.5927 1 9.50467 1 8.16066V7.766C1 6.42199 2.088 5.33398 3.432 5.33398H3.944Z" stroke="#333333" stroke-width="1.5" stroke-linecap="round" stroke-linejoin="round"/>
<path fill-rule="evenodd" clip-rule="evenodd" d="M14.9308 2.06982V13.8565C14.9308 14.7312 13.9388 15.2325 13.2348 14.7205L7.60278 10.5925V5.33383L13.2348 1.20582C13.9388 0.693817 14.9308 1.19515 14.9308 2.06982Z" stroke="#333333" stroke-width="1.5" stroke-linecap="round" stroke-linejoin="round"/>
<path d="M7.60252 5.33398H3.94385V10.5927H7.60252V5.33398Z" stroke="#333333" stroke-width="1.5" stroke-linecap="round" stroke-linejoin="round"/>
</svg>
