<svg width="17" height="15" viewBox="0 0 17 15" fill="none" xmlns="http://www.w3.org/2000/svg">
<g clip-path="url(#clip0_1_3465)">
<path d="M2.65039 2.01001H13.6504C14.7504 2.01001 15.6504 2.91001 15.6504 4.01001V5.92001H0.650391V4.01001C0.650391 2.91001 1.55039 2.01001 2.65039 2.01001Z" stroke="#333333" stroke-width="1.3" stroke-linecap="round" stroke-linejoin="round"/>
<path d="M4.15039 3.3699V0.649902" stroke="#333333" stroke-width="1.3" stroke-linecap="round" stroke-linejoin="round"/>
<path d="M12.1504 3.3699V0.649902" stroke="#333333" stroke-width="1.3" stroke-linecap="round" stroke-linejoin="round"/>
<path d="M8.15039 3.3699V0.649902" stroke="#333333" stroke-width="1.3" stroke-linecap="round" stroke-linejoin="round"/>
<path d="M13.6504 2.01001H2.65039C1.54582 2.01001 0.650391 2.90544 0.650391 4.01001V11.42C0.650391 12.5246 1.54582 13.42 2.65039 13.42H13.6504C14.755 13.42 15.6504 12.5246 15.6504 11.42V4.01001C15.6504 2.90544 14.755 2.01001 13.6504 2.01001Z" stroke="#333333" stroke-width="1.3" stroke-linecap="round" stroke-linejoin="round"/>
</g>
<defs>
<clipPath id="clip0_1_3465">
<rect width="16.3" height="14.07" fill="white"/>
</clipPath>
</defs>
</svg>
