<svg width="29" height="27" viewBox="0 0 29 27" fill="none" xmlns="http://www.w3.org/2000/svg">
<g id="Group 18">
<g id="Group">
<path id="Vector" fill-rule="evenodd" clip-rule="evenodd" d="M27.0697 12.3361C27.0697 14.1088 25.6272 15.5513 23.8544 15.5513H23.698V9.13818H23.8544C25.6272 9.13818 27.0697 10.5633 27.0697 12.3361Z" stroke="#4157A5" stroke-width="2" stroke-linecap="round" stroke-linejoin="round"/>
<path id="Vector_2" fill-rule="evenodd" clip-rule="evenodd" d="M11.741 23.5294C11.9321 24.4853 11.1848 25.3717 10.2115 25.3717C9.46421 25.3717 8.83853 24.8503 8.68212 24.1204L7.20483 16.6296H10.368L11.741 23.5294Z" stroke="#333333" stroke-width="2" stroke-linecap="round" stroke-linejoin="round"/>
<path id="Vector_3" fill-rule="evenodd" clip-rule="evenodd" d="M5.79682 8.06201V16.6303H4.96259C2.77274 16.6303 1 14.8575 1 12.6677V12.0246C1 9.83476 2.77274 8.06201 4.96259 8.06201H5.79682Z" stroke="#333333" stroke-width="2" stroke-linecap="round" stroke-linejoin="round"/>
<path id="Vector_4" fill-rule="evenodd" clip-rule="evenodd" d="M23.698 2.74312V21.9479C23.698 23.373 22.0817 24.1899 20.9346 23.3556L11.7581 16.6296V8.06135L20.9346 1.33535C22.0817 0.501119 23.698 1.31797 23.698 2.74312Z" stroke="#333333" stroke-width="2" stroke-linecap="round" stroke-linejoin="round"/>
<path id="Vector_5" d="M11.758 8.06201H5.79675V16.6303H11.758V8.06201Z" stroke="#333333" stroke-width="2" stroke-linecap="round" stroke-linejoin="round"/>
</g>
</g>
</svg>
