<svg width="18" height="18" viewBox="0 0 18 18" fill="none" xmlns="http://www.w3.org/2000/svg">
<g id="Group 27">
<path id="Vector" d="M9 17C13.4183 17 17 13.4183 17 9C17 4.58172 13.4183 1 9 1C4.58172 1 1 4.58172 1 9C1 13.4183 4.58172 17 9 17Z" fill="white" stroke="#333333" stroke-width="1.5" stroke-linecap="round" stroke-linejoin="round"/>
<path id="Vector_2" d="M8.99987 17C10.8379 17 12.3279 13.4183 12.3279 9C12.3279 4.58172 10.8379 1 8.99987 1C7.16187 1 5.67188 4.58172 5.67188 9C5.67188 13.4183 7.16187 17 8.99987 17Z" fill="white" stroke="#333333" stroke-width="1.5" stroke-linecap="round" stroke-linejoin="round"/>
<path id="Vector_3" d="M16.6485 6.65344H1.35254" stroke="#333333" stroke-width="1.5" stroke-linecap="round" stroke-linejoin="round"/>
<path id="Vector_4" d="M16.6485 11.3466H1.35254" stroke="#333333" stroke-width="1.5" stroke-linecap="round" stroke-linejoin="round"/>
</g>
</svg>
