<svg width="18" height="17" viewBox="0 0 18 17" fill="none" xmlns="http://www.w3.org/2000/svg">
<g id="Group">
<path id="Vector" fill-rule="evenodd" clip-rule="evenodd" d="M17 7.9573C17 9.04531 16.1147 9.93064 15.0267 9.93064H14.9307V5.99463H15.0267C16.1147 5.99463 17 6.8693 17 7.9573Z" stroke="#333333" stroke-width="1.5" stroke-linecap="round" stroke-linejoin="round"/>
<path id="Vector_2" fill-rule="evenodd" clip-rule="evenodd" d="M7.59211 14.827C7.70944 15.4136 7.25078 15.9576 6.65344 15.9576C6.19477 15.9576 5.81077 15.6376 5.71477 15.1896L4.80811 10.5923H6.74944L7.59211 14.827Z" stroke="#333333" stroke-width="1.5" stroke-linecap="round" stroke-linejoin="round"/>
<path id="Vector_3" fill-rule="evenodd" clip-rule="evenodd" d="M3.944 5.33423V10.5929H3.432C2.088 10.5929 1 9.50491 1 8.16091V7.76624C1 6.42224 2.088 5.33423 3.432 5.33423H3.944Z" stroke="#333333" stroke-width="1.5" stroke-linecap="round" stroke-linejoin="round"/>
<path id="Vector_4" fill-rule="evenodd" clip-rule="evenodd" d="M14.9307 2.06982V13.8565C14.9307 14.7312 13.9387 15.2325 13.2347 14.7205L7.60272 10.5925V5.33383L13.2347 1.20582C13.9387 0.693817 14.9307 1.19515 14.9307 2.06982Z" stroke="#333333" stroke-width="1.5" stroke-linecap="round" stroke-linejoin="round"/>
<path id="Vector_5" d="M7.60252 5.33423H3.94385V10.5929H7.60252V5.33423Z" stroke="#333333" stroke-width="1.5" stroke-linecap="round" stroke-linejoin="round"/>
</g>
</svg>
