<svg width="27" height="26" viewBox="0 0 27 26" fill="none" xmlns="http://www.w3.org/2000/svg">
<g id="Group 14">
<path id="Vector" d="M22.312 16.856V21.8C22.312 23.56 20.872 25 19.112 25H4.2C2.44 25 1 23.56 1 21.8V4.2C1 2.44 2.44 1 4.2 1H19.112C20.872 1 22.312 2.44 22.312 4.2V9.144" stroke="#333333" stroke-width="2" stroke-miterlimit="10"/>
<path id="Vector_2" d="M19.256 9.14429H23.416C24.296 9.14429 25.016 9.86429 25.016 10.7443V15.2563C25.016 16.1363 24.296 16.8563 23.416 16.8563H19.256C17.128 16.8563 15.4 15.1283 15.4 13.0003C15.4 10.8723 17.128 9.14429 19.256 9.14429Z" stroke="#4157A5" stroke-width="2" stroke-linecap="round" stroke-linejoin="round"/>
<path id="Vector_3" d="M19.256 14.1998C19.9187 14.1998 20.456 13.6625 20.456 12.9998C20.456 12.3371 19.9187 11.7998 19.256 11.7998C18.5932 11.7998 18.056 12.3371 18.056 12.9998C18.056 13.6625 18.5932 14.1998 19.256 14.1998Z" fill="#333333"/>
</g>
</svg>
