<svg width="20" height="20" viewBox="0 0 20 20" fill="none" xmlns="http://www.w3.org/2000/svg">
<path d="M15.834 6.66669C17.2147 6.66669 18.334 5.5474 18.334 4.16669C18.334 2.78598 17.2147 1.66669 15.834 1.66669C14.4533 1.66669 13.334 2.78598 13.334 4.16669C13.334 5.5474 14.4533 6.66669 15.834 6.66669Z" fill="#292D32"/>
<path opacity="0.4" d="M15.8327 7.91667C13.766 7.91667 12.0827 6.23333 12.0827 4.16667C12.0827 3.56667 12.241 3.00833 12.491 2.5H6.26602C3.39102 2.5 1.66602 4.21667 1.66602 7.1V13.725C1.66602 16.6167 3.39102 18.3333 6.26602 18.3333H12.891C15.7743 18.3333 17.491 16.6167 17.491 13.7333V7.50833C16.991 7.75833 16.4327 7.91667 15.8327 7.91667Z" fill="#292D32"/>
<path d="M9.79167 11.6667H5.625C5.28333 11.6667 5 11.3834 5 11.0417C5 10.7 5.28333 10.4167 5.625 10.4167H9.79167C10.1333 10.4167 10.4167 10.7 10.4167 11.0417C10.4167 11.3834 10.1333 11.6667 9.79167 11.6667Z" fill="#292D32"/>
<path d="M13.125 15H5.625C5.28333 15 5 14.7167 5 14.375C5 14.0333 5.28333 13.75 5.625 13.75H13.125C13.4667 13.75 13.75 14.0333 13.75 14.375C13.75 14.7167 13.4667 15 13.125 15Z" fill="#292D32"/>
</svg>
