<svg width="20" height="24" viewBox="0 0 20 24" fill="none" xmlns="http://www.w3.org/2000/svg">
<g id="_&#235;&#160;&#136;&#236;&#157;&#180;&#236;&#150;&#180;_1" clip-path="url(#clip0_212_67)">
<path id="Vector" fill-rule="evenodd" clip-rule="evenodd" d="M17.4596 12.7362V11.043C17.4596 7.1706 14.6109 3.7252 10.7342 3.35711C6.28489 2.93011 2.5404 6.39024 2.5404 10.7191V12.7215C2.5404 13.7669 2.26139 14.827 1.54186 15.5927C1.11602 16.0491 0.881072 16.6823 0.969177 17.3743C1.1307 18.4639 2.14392 19.2295 3.25993 19.2295H16.7401C17.8414 19.2295 18.8693 18.4639 19.0309 17.3743C19.1336 16.6823 18.8987 16.0344 18.4582 15.5927C17.7386 14.8418 17.4596 13.7669 17.4596 12.7215V12.7362Z" stroke="#333333" stroke-width="2" stroke-linecap="round" stroke-linejoin="round"/>
<path id="Vector_2" d="M7.79736 23.043H12.2027" stroke="#333333" stroke-width="2" stroke-linecap="round" stroke-linejoin="round"/>
<path id="Vector_3" d="M10 0.957031V3.16562" stroke="#333333" stroke-width="2" stroke-linecap="round" stroke-linejoin="round"/>
</g>
<defs>
<clipPath id="clip0_212_67">
<rect width="20" height="24" fill="white"/>
</clipPath>
</defs>
</svg>
