<svg width="20" height="20" viewBox="0 0 20 20" fill="none" xmlns="http://www.w3.org/2000/svg">
<path d="M9 5H6C4.34315 5 3 6.34315 3 8C3 9.65685 4.34315 11 6 11M9 5V11M9 5L13.9604 3.58273C14.6528 3.3849 14.999 3.28599 15.2729 3.36369C15.5128 3.43176 15.7187 3.58702 15.85 3.79902C16 4.04103 16 4.40107 16 5.12117V10.8788C16 11.5989 16 11.959 15.85 12.201C15.7187 12.413 15.5128 12.5682 15.2729 12.6363C14.999 12.714 14.6528 12.6151 13.9604 12.4173L9 11M9 11H6M9 11L10.3757 15.127C10.6828 16.0484 9.99696 17 9.02566 17C8.41315 17 7.86935 16.6081 7.67566 16.027L6 11" stroke="black"/>
<circle cx="16" cy="4" r="3" fill="white"/>
<circle cx="16" cy="4" r="2" fill="#FF3131"/>
</svg>
