<svg width="14" height="14" viewBox="0 0 14 14" fill="none" xmlns="http://www.w3.org/2000/svg">
<g clip-path="url(#clip0_1233_1279)">
<path d="M1.98896 8.84216H10.9662C12.2355 8.84216 13.2626 9.83087 13.2626 11.0527V12.0575C13.2626 12.7247 12.7031 13.2632 12.01 13.2632H3.03282C1.76349 13.2632 0.736328 12.2745 0.736328 11.0527V10.0479C0.736328 9.38073 1.29584 8.84216 1.98896 8.84216Z" stroke="#757575" stroke-width="1.4" stroke-linecap="round" stroke-linejoin="round"/>
<path d="M6.86992 5.63688C8.22302 5.63688 9.31992 4.53997 9.31992 3.18688C9.31992 1.83378 8.22302 0.736877 6.86992 0.736877C5.51682 0.736877 4.41992 1.83378 4.41992 3.18688C4.41992 4.53997 5.51682 5.63688 6.86992 5.63688Z" stroke="#757575" stroke-width="1.4" stroke-linecap="round" stroke-linejoin="round"/>
</g>
<defs>
<clipPath id="clip0_1233_1279">
<rect width="14" height="14" fill="white"/>
</clipPath>
</defs>
</svg>
