<svg width="27" height="29" viewBox="0 0 27 29" fill="none" xmlns="http://www.w3.org/2000/svg">
<g id="Group">
<path id="Vector" d="M13.483 18.8137C15.9449 18.8137 17.9407 16.818 17.9407 14.3561C17.9407 11.8942 15.9449 9.89844 13.483 9.89844C11.0211 9.89844 9.02539 11.8942 9.02539 14.3561C9.02539 16.818 11.0211 18.8137 13.483 18.8137Z" stroke="#4157A5" stroke-width="2" stroke-linecap="round" stroke-linejoin="round"/>
<path id="Vector_2" fill-rule="evenodd" clip-rule="evenodd" d="M24.7359 12.0523L24.8027 12.0189C25.938 11.3678 26.3387 9.91528 25.6876 8.78L24.4688 6.6597C23.8177 5.52442 22.3652 5.12374 21.2299 5.77485C20.4953 6.19224 19.5938 6.20893 18.8759 5.77485C18.6755 5.65799 18.4752 5.54112 18.2582 5.42425C17.5069 5.02357 17.0728 4.22219 17.0728 3.37073C17.0728 2.0518 16.0043 1 14.7021 1H12.2645C10.9623 1 9.89382 2.0685 9.89382 3.37073C9.89382 4.22219 9.44304 5.02357 8.69176 5.42425C8.50811 5.52443 8.32446 5.62459 8.14081 5.74146C7.42291 6.19223 6.50467 6.17553 5.78678 5.74146C4.6515 5.09034 3.19901 5.47434 2.54789 6.60962L1.32913 8.71323C0.678017 9.84851 1.06201 11.301 2.19729 11.9521L2.26407 11.9855C3.01536 12.4196 3.44944 13.221 3.44944 14.0724C3.44944 14.2394 3.44944 14.4063 3.44944 14.5733C3.44944 15.4414 2.99866 16.2261 2.26407 16.6602L2.19729 16.6936C1.06201 17.3447 0.661322 18.7972 1.31244 19.9325L2.53119 22.0528C3.18231 23.188 4.6348 23.5887 5.77008 22.9376C6.50467 22.5202 7.40622 22.5035 8.12412 22.9376C8.32446 23.0545 8.5248 23.1713 8.74184 23.2882C9.49313 23.6889 9.92721 24.4903 9.92721 25.3417C9.92721 26.6607 10.9957 27.7125 12.2979 27.7125H14.7355C16.0377 27.7125 17.1062 26.644 17.1062 25.3417C17.1062 24.4903 17.557 23.6889 18.3082 23.2882C18.4919 23.188 18.6755 23.0879 18.8592 22.971C19.5771 22.5202 20.4953 22.5369 21.2132 22.971C22.3485 23.6221 23.801 23.2381 24.4521 22.1028L25.6709 19.9992C26.322 18.864 25.938 17.4115 24.8027 16.7604L24.7359 16.727C23.9846 16.2929 23.5506 15.4915 23.5506 14.64C23.5506 14.4731 23.5506 14.3062 23.5506 14.1392C23.5506 13.271 24.0013 12.4864 24.7359 12.0523Z" stroke="#333333" stroke-width="2" stroke-linecap="round" stroke-linejoin="round"/>
</g>
</svg>
