<svg width="20" height="20" viewBox="0 0 20 20" fill="none" xmlns="http://www.w3.org/2000/svg">
<rect width="20" height="20" fill="white"/>
<path d="M3.59961 12.625H15.0664C16.3294 12.625 17.375 13.6737 17.375 15V16.3633C17.375 16.9367 16.9272 17.3748 16.4004 17.375H4.93359C3.6706 17.375 2.625 16.3263 2.625 15V13.6367C2.625 13.0633 3.07279 12.6252 3.59961 12.625Z" stroke="#333333" stroke-width="1.25" stroke-linecap="round" stroke-linejoin="round"/>
<path d="M10 2.625C11.864 2.625 13.375 4.13604 13.375 6C13.375 7.86396 11.864 9.375 10 9.375C8.13604 9.375 6.625 7.86396 6.625 6C6.625 4.13604 8.13604 2.625 10 2.625Z" stroke="#333333" stroke-width="1.25" stroke-linecap="round" stroke-linejoin="round"/>
</svg>
