<svg width="20" height="20" viewBox="0 0 20 20" fill="none" xmlns="http://www.w3.org/2000/svg">
<path opacity="0.4" d="M17.0827 5.83335V12.5H5.29102C3.98268 12.5 2.91602 13.5667 2.91602 14.875V5.83335C2.91602 2.50002 3.74935 1.66669 7.08268 1.66669H12.916C16.2493 1.66669 17.0827 2.50002 17.0827 5.83335Z" fill="#292D32"/>
<path d="M17.0827 12.5V15.4167C17.0827 17.025 15.7743 18.3333 14.166 18.3333H5.83268C4.22435 18.3333 2.91602 17.025 2.91602 15.4167V14.875C2.91602 13.5667 3.98268 12.5 5.29102 12.5H17.0827Z" fill="#292D32"/>
<path d="M13.3327 6.45831H6.66602C6.32435 6.45831 6.04102 6.17498 6.04102 5.83331C6.04102 5.49165 6.32435 5.20831 6.66602 5.20831H13.3327C13.6743 5.20831 13.9577 5.49165 13.9577 5.83331C13.9577 6.17498 13.6743 6.45831 13.3327 6.45831Z" fill="#292D32"/>
<path d="M10.8327 9.375H6.66602C6.32435 9.375 6.04102 9.09167 6.04102 8.75C6.04102 8.40833 6.32435 8.125 6.66602 8.125H10.8327C11.1743 8.125 11.4577 8.40833 11.4577 8.75C11.4577 9.09167 11.1743 9.375 10.8327 9.375Z" fill="#292D32"/>
</svg>
