<svg width="24" height="24" viewBox="0 0 24 24" fill="none" xmlns="http://www.w3.org/2000/svg">
<rect width="24" height="24" fill="white"/>
<path d="M19 14.892V18.6C19 19.92 17.9189 21 16.5976 21H5.4024C4.08108 21 3 19.92 3 18.6V5.4C3 4.08 4.08108 3 5.4024 3H16.5976C17.9189 3 19 4.08 19 5.4V9.108" stroke="#333333" stroke-width="1.5" stroke-miterlimit="10"/>
<path d="M17.208 9H20.6689C21.401 9 22 9.56017 22 10.2448V13.7552C22 14.4398 21.401 15 20.6689 15H17.208C15.4376 15 14 13.6556 14 12C14 10.3444 15.4376 9 17.208 9Z" stroke="#4157A5" stroke-width="1.5" stroke-linecap="round" stroke-linejoin="round"/>
<path d="M18 13C18.5523 13 19 12.5523 19 12C19 11.4477 18.5523 11 18 11C17.4477 11 17 11.4477 17 12C17 12.5523 17.4477 13 18 13Z" fill="#333333"/>
</svg>
