<svg width="21" height="20" viewBox="0 0 21 20" fill="none" xmlns="http://www.w3.org/2000/svg">
<path fill-rule="evenodd" clip-rule="evenodd" d="M19.75 9.74224C19.75 11.4008 18.4665 12.7504 16.8892 12.7504H16.75V6.75037H16.8892C18.4665 6.75037 19.75 8.0837 19.75 9.74224Z" stroke="#4157A5" stroke-width="1.5" stroke-linecap="round" stroke-linejoin="round"/>
<path fill-rule="evenodd" clip-rule="evenodd" d="M8.68063 17.5645C8.88997 18.4392 8.07163 19.2504 7.00588 19.2504C6.18754 19.2504 5.50242 18.7732 5.33114 18.1052L3.75019 11.7504H7.21387L8.68063 17.5645Z" stroke="#333333" stroke-width="1.5" stroke-linecap="round" stroke-linejoin="round"/>
<path fill-rule="evenodd" clip-rule="evenodd" d="M3.75 6.75037V11.7504H3.22826C1.8587 11.7504 0.75 10.7159 0.75 9.43799V9.06274C0.75 7.78485 1.8587 6.75037 3.22826 6.75037H3.75Z" stroke="#333333" stroke-width="1.5" stroke-linecap="round" stroke-linejoin="round"/>
<path fill-rule="evenodd" clip-rule="evenodd" d="M16.75 2.05631V16.4444C16.75 17.5121 15.5317 18.1241 14.667 17.4991L7.75 11.7504V6.75037L14.667 1.00161C15.5317 0.376607 16.75 0.988592 16.75 2.05631Z" stroke="#333333" stroke-width="1.5" stroke-linecap="round" stroke-linejoin="round"/>
<path d="M7.75 6.75037H3.75V11.7504H7.75V6.75037Z" stroke="#333333" stroke-width="1.5" stroke-linecap="round" stroke-linejoin="round"/>
</svg>
