<svg width="22" height="22" viewBox="0 0 22 22" fill="none" xmlns="http://www.w3.org/2000/svg">
<path d="M9.09831 13.75H12.4017C13.1433 13.75 13.75 14.38 13.75 15.15V20.75H7.75V15.15C7.75 14.38 8.35674 13.75 9.09831 13.75Z" stroke="#4157A5" stroke-width="1.5" stroke-linecap="round" stroke-linejoin="round"/>
<path fill-rule="evenodd" clip-rule="evenodd" d="M9.07 1.3737L1.97667 7.37509C1.20333 8.02651 0.75 9.02443 0.75 10.0639V17.978C0.75 19.5026 1.95 20.75 3.41667 20.75H18.0833C19.55 20.75 20.75 19.5026 20.75 17.978V10.0639C20.75 9.02443 20.2967 8.04037 19.5233 7.37509L12.43 1.3737C11.4433 0.5421 10.0433 0.5421 9.05667 1.3737H9.07Z" stroke="#333333" stroke-width="1.5" stroke-linecap="round" stroke-linejoin="round"/>
</svg>
