<svg width="20" height="21" viewBox="0 0 20 21" fill="none" xmlns="http://www.w3.org/2000/svg">
<path d="M9.75 13.2158C11.4069 13.2158 12.75 11.8727 12.75 10.2158C12.75 8.55896 11.4069 7.21582 9.75 7.21582C8.09315 7.21582 6.75 8.55896 6.75 10.2158C6.75 11.8727 8.09315 13.2158 9.75 13.2158Z" stroke="#4157A5" stroke-width="1.5" stroke-linecap="round" stroke-linejoin="round"/>
<path fill-rule="evenodd" clip-rule="evenodd" d="M17.8399 8.70765L17.888 8.6836C18.7054 8.2148 18.9938 7.169 18.525 6.3516L17.6475 4.82499C17.1787 4.00758 16.1329 3.71909 15.3155 4.18789C14.7866 4.48841 14.1375 4.50043 13.6206 4.18789C13.4764 4.10375 13.3321 4.01961 13.1759 3.93546C12.6349 3.64697 12.3224 3.06998 12.3224 2.45692C12.3224 1.5073 11.5531 0.75 10.6155 0.75H8.86047C7.92287 0.75 7.15355 1.51932 7.15355 2.45692C7.15355 3.06998 6.82899 3.64697 6.28806 3.93546C6.15584 4.00759 6.02361 4.0797 5.89138 4.16385C5.3745 4.4884 4.71336 4.47638 4.19648 4.16385C3.37908 3.69504 2.33328 3.97152 1.86448 4.78893L0.986976 6.30352C0.518172 7.12093 0.794646 8.16671 1.61205 8.63552L1.66013 8.65956C2.20106 8.9721 2.51359 9.54909 2.51359 10.1621C2.51359 10.2823 2.51359 10.4025 2.51359 10.5228C2.51359 11.1478 2.18904 11.7128 1.66013 12.0253L1.61205 12.0494C0.794646 12.5182 0.506152 13.564 0.974955 14.3814L1.85246 15.908C2.32126 16.7254 3.36706 17.0139 4.18446 16.5451C4.71336 16.2446 5.36248 16.2325 5.87936 16.5451C6.02361 16.6292 6.16786 16.7134 6.32413 16.7975C6.86505 17.086 7.17759 17.663 7.17759 18.276C7.17759 19.2257 7.94691 19.983 8.88452 19.983H10.6395C11.5771 19.983 12.3465 19.2137 12.3465 18.276C12.3465 17.663 12.671 17.086 13.2119 16.7975C13.3442 16.7254 13.4764 16.6533 13.6086 16.5691C14.1255 16.2446 14.7866 16.2566 15.3035 16.5691C16.1209 17.0379 17.1667 16.7614 17.6355 15.944L18.513 14.4294C18.9818 13.612 18.7054 12.5663 17.888 12.0975L17.8399 12.0734C17.2989 11.7609 16.9864 11.1839 16.9864 10.5708C16.9864 10.4506 16.9864 10.3304 16.9864 10.2102C16.9864 9.58515 17.311 9.02018 17.8399 8.70765Z" stroke="#333333" stroke-width="1.5" stroke-linecap="round" stroke-linejoin="round"/>
</svg>
