<svg width="295" height="295" viewBox="0 0 295 295" fill="none" xmlns="http://www.w3.org/2000/svg">
<rect x="0.5" y="0.5" width="294" height="294" rx="9.5" fill="#D9D9D9" stroke="#DDDDDD"/>
<path d="M95.1737 171.105H190.717C204.226 171.105 215.158 181.628 215.158 194.632V205.325C215.158 212.426 209.203 218.158 201.826 218.158H106.283C92.7741 218.158 81.8422 207.635 81.8422 194.632V183.938C81.8422 176.837 87.7969 171.105 95.1737 171.105Z" stroke="white" stroke-width="10" stroke-linecap="round" stroke-linejoin="round"/>
<path d="M147.128 136.992C161.528 136.992 173.203 125.318 173.203 110.917C173.203 96.5162 161.528 84.842 147.128 84.842C132.727 84.842 121.053 96.5162 121.053 110.917C121.053 125.318 132.727 136.992 147.128 136.992Z" stroke="white" stroke-width="10" stroke-linecap="round" stroke-linejoin="round"/>
</svg>
